<svg width="230" height="50" viewBox="0 0 230 50" fill="none" xmlns="http://www.w3.org/2000/svg">
<path fill-rule="evenodd" clip-rule="evenodd" d="M181.992 1.33884C181.882 1.62689 181.465 3.11214 181.066 4.63913C179.367 11.139 179.238 11.3166 175.472 12.3829C175.111 12.486 174.815 12.7659 174.815 13.0065C174.815 13.2921 175.043 13.4115 175.472 13.3518C175.903 13.2921 176.13 13.4123 176.13 13.6988C176.13 13.9533 175.86 14.1415 175.488 14.1464C175.135 14.1513 174.751 14.2495 174.636 14.3657C174.52 14.4811 174.576 14.576 174.76 14.576C174.988 14.576 175.013 14.7855 174.839 15.2331C174.698 15.5948 174.415 16.4565 174.209 17.148C173.789 18.5588 173.223 19.1725 173.526 17.8886C173.667 17.2887 173.632 17.1431 173.397 17.3616C173.219 17.5269 172.986 18.0915 172.882 18.6144L172.692 19.5661L174.155 18.9892C179.191 17.0048 179.125 17.0915 180.787 10.3379C181.947 5.62357 182.805 -0.775699 181.992 1.33884ZM173.971 15.7773C173.791 16.2936 173.694 16.7675 173.757 16.8305C173.819 16.8927 174.018 16.5211 174.198 16.0048C174.378 15.4884 174.474 15.0146 174.412 14.9516C174.349 14.8894 174.151 15.2609 173.971 15.7773ZM189.632 16.6365C185.958 17.8796 186.087 17.7814 185.386 19.8476L184.843 21.4442L182.039 21.5276L179.233 21.6111L178.631 23.2191C177.693 25.7281 177.655 25.6814 180.639 25.6814H183.25L183.008 26.485C182.876 26.9277 182.161 28.9817 181.422 31.0504C180.681 33.1191 180.075 34.8613 180.075 34.9227C180.075 34.9841 181.505 35.034 183.252 35.034H186.428L187.522 31.8925C188.124 30.1642 188.849 28.093 189.134 27.2894L189.652 25.8279L192.565 25.6814C194.166 25.6012 195.66 25.3942 195.886 25.2223C196.72 24.5849 206.48 20.8517 210.69 19.5612C213.04 18.8403 213.551 18.2118 211.566 18.4843C210.883 18.5776 209.849 18.7175 209.269 18.7953C208.688 18.873 207.57 19.1881 206.785 19.4949C205.999 19.8018 204.303 20.2805 203.018 20.5587C201.731 20.837 200.466 21.1733 200.206 21.3067C199.943 21.4401 199.612 21.4286 199.463 21.2797C199.3 21.1168 198.799 21.125 198.186 21.3009C196.641 21.7437 191.182 21.679 191.182 21.2183C191.182 21.0137 191.581 19.8075 192.07 18.5383C193.285 15.3837 193.3 15.3959 189.632 16.6365ZM176.316 19.3173C175.294 19.7813 174.53 20.233 174.619 20.3222C174.868 20.5718 177.724 19.7666 178.071 19.3493C178.75 18.5301 178.079 18.5178 176.316 19.3173ZM57.9117 21.0072C55.46 21.2371 54.6973 21.4785 54.6973 22.0235C54.6973 22.2281 54.5001 22.5587 54.2587 22.7592C53.933 23.0292 53.8201 23.0342 53.8201 22.7788C53.8201 21.1545 44.0183 20.4581 40.3055 21.819C34.5126 23.9417 31.3973 32.0627 35.5388 34.2427C38.0331 35.5553 45.177 35.2607 48.5288 33.7067C49.3963 33.3049 50.1622 33.0316 50.2301 33.0995C50.4912 33.3605 49.1287 35.5798 48.258 36.3122L47.3455 37.0798H40.8759H34.4063L29.9088 39.0528L25.4121 41.0249L36.3072 41.1019C53.4363 41.2221 53.0992 41.412 57.811 29.0054C61.1809 20.1332 60.9943 20.7028 60.5033 20.7576C60.284 20.7813 59.1179 20.8942 57.9117 21.0072ZM70.7143 21.0235C64.7815 21.5268 61.775 23.179 60.1318 26.841C57.1678 33.4456 59.1735 35.318 69.216 35.3237C79.2453 35.3294 82.6994 33.6093 84.5415 27.6912C86.3033 22.0309 82.1954 20.0497 70.7143 21.0235ZM98.5487 21.3386C97.6714 21.4834 96.2475 21.9261 95.385 22.3206L93.8163 23.0391L94.0094 22.1577L94.2034 21.2764L91.3327 21.3599L88.4621 21.4442L85.8123 28.458C82.9433 36.0544 80.4392 42.047 78.6357 45.6362C78.0072 46.8857 77.4933 48.0625 77.4933 48.2515C77.4933 48.6484 80.2224 44.993 80.3018 44.4889C80.3312 44.3039 80.9941 43.5437 81.7739 42.7982C82.5538 42.0536 82.9621 41.5282 82.6806 41.6313C82.3942 41.7361 82.1692 41.6796 82.1692 41.5028C82.1692 41.1608 84.7461 40.3294 86.4694 40.1158C87.9661 39.93 88.0897 39.7713 89.1666 36.6469C90.2223 33.5839 90.1879 33.615 91.6183 34.4587C96.0528 37.0757 105.839 35.1584 108.595 31.1323C113.675 23.7109 109.396 19.5399 98.5487 21.3386ZM157.983 21.2911C156.426 21.6201 154.842 22.2903 153.702 23.1013C152.914 23.6626 152.816 23.6798 152.99 23.2281C153.1 22.9401 153.27 22.3885 153.367 22.0014L153.544 21.2977H150.746C148.336 21.2977 147.908 21.3721 147.663 21.8312C147.394 22.3329 142.959 34.6928 142.959 34.9391C142.959 35.0021 144.36 35.016 146.072 34.971L149.186 34.8875L150.57 30.8213C152.343 25.616 152.965 25.0971 157.426 25.1029C161.833 25.1086 161.905 25.7371 158.524 34.6682C158.419 34.9464 159.119 35.034 161.447 35.034H164.509L165.561 32.0381C168.279 24.305 168.365 22.8918 166.193 21.7674C164.887 21.0915 160.212 20.8206 157.983 21.2911ZM112.387 23.4065C112.944 29.2886 113.435 34.6191 113.437 34.8147C113.44 34.935 113.696 35.034 114.008 35.034C114.53 35.034 114.543 34.9702 114.17 34.2509C113.65 33.2501 113.918 32.8 114.643 33.4563C114.985 33.7656 115.137 34.1715 115.033 34.498C114.877 34.9906 115.076 35.034 117.487 35.034H120.112L123.806 30.9424C125.837 28.692 127.543 26.8508 127.594 26.8508C127.646 26.8508 127.839 28.1331 128.022 29.7002C128.205 31.2673 128.426 33.1085 128.514 33.7918L128.674 35.034H131.865H135.056L137.619 32.061C139.029 30.4252 141.673 27.368 143.494 25.2657L146.805 21.4442L144.224 21.3582C140.659 21.2396 140.875 21.1005 136.984 25.9907C134.724 28.8311 133.424 30.2444 133.294 30.0022C133.183 29.7959 132.932 27.8516 132.736 25.6814C132.3 20.873 132.598 21.2977 129.66 21.2977H127.209L124.744 24.1471C123.389 25.7142 121.546 27.7861 120.65 28.7501L119.02 30.5038L118.968 29.3352C118.94 28.692 118.836 26.6536 118.736 24.805L118.556 21.4442L115.371 21.3607L112.186 21.2772L112.387 23.4065ZM171.45 21.6635C171.378 21.864 170.606 24.0669 169.734 26.5587C168.864 29.0496 167.875 31.7836 167.537 32.6339C166.561 35.0938 166.5 35.034 169.974 35.034H173.024L173.737 32.7689C174.128 31.5234 175.183 28.4326 176.08 25.9007L177.713 21.2977H174.648C172.46 21.2977 171.544 21.4024 171.45 21.6635ZM196.734 23.107C196.734 23.4908 196.07 23.2502 195.925 22.814C195.854 22.6005 195.987 22.535 196.272 22.6438C196.526 22.742 196.734 22.9499 196.734 23.107ZM51.2522 25.5914C53.9052 27.1413 51.9232 30.2509 47.8275 30.9637C41.6615 32.0373 38.8252 30.3778 41.0437 26.994C42.4544 24.8418 48.537 24.0063 51.2522 25.5914ZM77.9736 25.5358C78.7404 26.5718 77.756 29.368 76.2306 30.485C75.0956 31.3164 67.8576 31.5561 66.4149 30.8106C64.4812 29.8107 65.914 26.2199 68.6497 25.2084C70.4844 24.53 77.409 24.7731 77.9736 25.5358ZM102.381 25.1454C104.025 25.6381 104.321 27.9392 102.977 29.7665C101.11 32.3024 91.8139 32.0488 91.8139 29.4621C91.8139 28.4735 92.687 26.5832 93.4268 25.9695C94.6068 24.9899 100.157 24.4793 102.381 25.1454ZM84.3819 38.0814C84.94 38.6395 84.913 38.7909 84.1421 39.4341C83.1642 40.25 82.7052 40.16 82.9351 39.1984C83.278 37.7623 83.7207 37.4202 84.3819 38.0814Z" fill="url(#paint0_linear_2672_248)"/>
<path fill-rule="evenodd" clip-rule="evenodd" d="M181.888 0.933127C181.415 2.2408 181.466 2.65978 181.965 1.56978C182.497 0.407765 182.5 1.02969 181.979 4.19986C181.741 5.64666 181.561 7.09345 181.578 7.41505C181.62 8.22437 182.67 2.08532 182.69 0.91185C182.71 -0.312357 182.335 -0.302537 181.888 0.933127ZM180.843 4.38317C180.599 5.60083 180.835 5.83732 181.098 4.63848C181.21 4.13358 181.239 3.65896 181.165 3.58449C181.09 3.51002 180.945 3.86926 180.843 4.38317ZM179.773 8.17771C179.023 10.6654 178.192 11.4019 175.354 12.0967C174.927 12.2014 174.515 12.5058 174.437 12.7734C174.36 13.041 174.212 13.4641 174.109 13.7128C173.958 14.0762 174.139 14.1621 175.026 14.1515C175.806 14.1408 176.13 14.0082 176.13 13.6981C176.13 13.4117 175.903 13.2914 175.472 13.3511C175.043 13.4109 174.815 13.2914 174.815 13.0058C174.815 12.7652 175.111 12.4854 175.472 12.3822C175.834 12.28 176.823 11.9093 177.67 11.559L179.21 10.9224L179.973 8.50013C180.393 7.1679 180.678 6.02144 180.609 5.95188C180.54 5.88232 180.164 6.88395 179.773 8.17771ZM175.561 6.36677C175.192 6.96415 174.231 9.99684 174.368 10.1335C174.444 10.2104 174.643 9.89291 174.812 9.42811C174.98 8.96412 175.332 8.08934 175.596 7.48542C176.034 6.48052 176.007 5.6442 175.561 6.36677ZM180.858 9.9682C180.588 11.041 180.38 12.0893 180.395 12.2971C180.408 12.505 180.669 11.7546 180.971 10.6294C181.275 9.50421 181.484 8.45677 181.435 8.30047C181.387 8.14499 181.127 8.89538 180.858 9.9682ZM173.098 13.5901C172.715 14.4289 172.927 14.9681 173.365 14.2742C173.625 13.8642 173.755 12.8217 173.547 12.8217C173.492 12.8217 173.29 13.1678 173.098 13.5901ZM179.629 14.5999C178.994 16.6973 178.34 17.2774 175.107 18.6048C173.191 19.392 172.894 19.446 172.747 19.0344C172.578 18.5606 172.184 19.1244 172.184 19.8404C172.184 20.1129 177.457 18.0409 178.497 17.3601C179.098 16.9657 180.611 13.2603 180.299 12.9469C180.228 12.8765 179.926 13.6195 179.629 14.5999ZM173.931 15.032C173.777 15.4379 173.569 16.0941 173.47 16.4902C173.37 16.8871 173.172 17.2832 173.029 17.3715C172.886 17.4599 172.778 17.7545 172.787 18.0262C172.801 18.3846 172.879 18.3396 173.071 17.8634C173.432 16.9624 173.753 17.0319 173.52 17.9607C173.206 19.2087 173.805 18.5016 174.209 17.1473C174.415 16.4558 174.693 15.6056 174.827 15.257C175.003 14.8012 174.952 14.5778 174.642 14.4591C174.364 14.3528 174.112 14.5557 173.931 15.032ZM174.198 16.0041C174.018 16.5205 173.819 16.892 173.757 16.8298C173.694 16.7668 173.791 16.293 173.971 15.7766C174.151 15.2603 174.349 14.8888 174.412 14.951C174.474 15.014 174.378 15.4878 174.198 16.0041ZM191.474 15.7439C190.75 16.0475 190.307 16.3036 190.488 16.3126C190.669 16.3216 191.294 16.1293 191.876 15.8863C193.223 15.3241 193.235 15.5123 192.058 18.5687C191.576 19.8208 191.182 21.0131 191.182 21.2176C191.182 21.626 196.812 21.7144 198.195 21.3265C198.597 21.2144 197.249 21.1776 195.2 21.2447C193.15 21.3126 191.474 21.2954 191.474 21.2062C191.474 21.1178 191.868 19.9746 192.35 18.667C193.686 15.0459 193.624 14.8421 191.474 15.7439ZM168.571 17.3519C168.664 17.5925 168.858 17.7897 169.001 17.7897C169.144 17.7897 169.262 17.5925 169.262 17.3519C169.262 17.1105 169.069 16.9133 168.832 16.9133C168.571 16.9133 168.469 17.0843 168.571 17.3519ZM186.968 17.2185C186.134 17.4673 185.642 17.9452 185.633 18.5123C185.63 18.6686 185.833 18.5049 186.083 18.1473C186.334 17.7897 186.761 17.4959 187.034 17.4935C187.305 17.491 187.725 17.3617 187.966 17.2054C188.491 16.8666 188.129 16.8707 186.968 17.2185ZM66.6578 18.1882C64.648 18.8486 63.2021 19.6497 63.4852 19.946C63.576 20.0409 64.1333 19.8731 64.7233 19.5728C65.3125 19.2725 66.6513 18.7946 67.6987 18.5106C68.7454 18.2275 69.6021 17.8838 69.6021 17.7463C69.6021 17.3683 68.7732 17.4927 66.6578 18.1882ZM176.057 19.1203C173.718 20.2128 173.272 20.8674 175.034 20.6211C177.782 20.2365 178.614 19.7692 178.614 18.6113C178.614 17.9354 178.578 17.9427 176.057 19.1203ZM209.739 18.2807C209.418 18.3527 208.037 18.7856 206.671 19.243C204.509 19.9664 203.496 20.2168 200.01 20.892C199.642 20.964 199.418 21.1473 199.512 21.2995C199.614 21.4648 199.885 21.4738 200.181 21.3208C200.456 21.1792 201.731 20.8363 203.018 20.5581C204.303 20.2799 205.999 19.8011 206.785 19.4943C207.57 19.1874 208.688 18.8723 209.269 18.7946C209.849 18.7169 210.883 18.5769 211.566 18.4836C213.174 18.2627 213.227 18.8241 211.64 19.2512C210.338 19.6015 210.005 20.0139 211.274 19.7013C214.457 18.919 212.984 17.5549 209.739 18.2807ZM178.07 19.3486C177.724 19.7659 174.868 20.5712 174.619 20.3216C174.53 20.2324 175.294 19.7807 176.316 19.3167C178.079 18.5172 178.75 18.5295 178.07 19.3486ZM207.749 20.4738C206.814 20.7995 206.101 21.117 206.163 21.1792C206.226 21.2422 207.188 20.9746 208.301 20.5859C209.414 20.1972 210.127 19.8797 209.886 19.8805C209.645 19.8813 208.683 20.1481 207.749 20.4738ZM167.508 20.4206C167.508 20.581 167.911 20.7127 168.403 20.7127C168.924 20.7127 169.221 20.5908 169.116 20.4206C169.017 20.2594 168.614 20.1285 168.222 20.1285C167.829 20.1285 167.508 20.2594 167.508 20.4206ZM60.495 20.6506C60.8093 20.8715 60.6301 21.5793 59.5818 24.2528C58.865 26.0834 57.5843 29.4696 56.7357 31.7781C54.4346 38.0415 53.0549 39.6642 49.1441 40.7043C48.2603 40.94 47.8274 41.1405 48.1834 41.1511C51.1997 41.2411 54.365 38.5038 56.1048 34.3026C59.7651 25.4582 61.2913 20.7144 60.5425 20.5008C60.1931 20.401 60.1833 20.4312 60.495 20.6506ZM47.3905 20.9811C51.1024 21.1972 53.82 21.9566 53.82 22.7782C53.82 23.0335 53.9329 23.0286 54.2586 22.7586C54.5 22.5581 54.6973 22.2275 54.6973 22.0229C54.6973 21.4779 55.4599 21.2365 57.9116 21.0065L60.1039 20.8011L58.2676 20.7569C56.2054 20.707 54.4051 21.3044 54.4051 22.0376C54.4051 22.3003 54.3061 22.4639 54.1858 22.4026C51.4027 20.9762 51.0533 20.8952 47.3905 20.8322L43.7375 20.7692L47.3905 20.9811ZM68.0719 21.0147C64.2642 21.6554 61.5081 23.4975 60.0433 26.3804C57.3347 31.7118 58.4648 34.8034 63.261 35.1856L64.7798 35.3059L63.1898 35.0178C58.7226 34.2085 57.8601 31.9016 60.1317 26.8403C61.7765 23.1759 64.7945 21.518 70.7142 21.0286C73.3517 20.8109 73.4057 20.7938 71.5023 20.788C70.3771 20.7839 68.8329 20.8862 68.0719 21.0147ZM78.224 20.9902C85.264 21.6374 86.6142 23.8837 83.6224 29.9753C81.6977 33.8943 79.0112 34.9662 70.1864 35.3353L64.7798 35.562L70.4794 35.4736C79.5996 35.3329 82.6985 33.8443 84.5684 28.7069C86.5405 23.288 84.8376 21.1325 78.3696 20.8641L75.5939 20.7487L78.224 20.9902ZM99.2662 20.9165C97.9397 21.0924 95.2221 21.8977 94.8097 22.2373C94.5339 22.4639 94.4439 22.3502 94.4439 21.7716V21.0049H91.5282C88.3597 21.0049 88.0643 21.1587 87.606 23.0507C87.5086 23.4525 87.687 23.2225 88.0021 22.5392L88.5749 21.297H91.3866H94.1984L94.0069 22.1677L93.8162 23.0384L95.3719 22.3289C98.9831 20.6841 106.149 20.5491 109.129 22.0703C112.054 23.5638 110.377 30.7257 106.484 33.3713C103.174 35.6209 94.6452 36.2445 91.6182 34.4581C90.1878 33.6144 90.2222 33.5833 89.1665 36.6463C88.0692 39.8295 87.9906 39.9244 86.264 40.1413C85.561 40.2297 84.9113 40.3835 84.8204 40.4834C84.7288 40.5832 85.3769 40.5742 86.2607 40.4629C88.2427 40.2133 88.3253 40.1241 89.3327 37.1716C90.4325 33.9458 90.3695 34.0137 91.5928 34.7355C93.9701 36.1381 100.794 36.1127 104.604 34.6872C109.761 32.7576 112.998 24.608 109.605 22.0973C108.089 20.9754 103.109 20.4067 99.2662 20.9165ZM157.915 21.0253C157.22 21.162 155.938 21.6006 155.066 22C153.389 22.7676 153.303 22.7586 153.783 21.8625C153.956 21.5384 153.969 21.297 153.815 21.297C153.666 21.297 153.464 21.6137 153.367 22.0008C153.27 22.3878 153.104 22.9288 152.999 23.2029C152.849 23.5932 153.056 23.5376 153.947 22.9492C156.107 21.5237 157.443 21.2046 161.371 21.1767C168.634 21.1252 169.032 22.1579 165.561 32.0375L164.508 35.0334H161.459C158.437 35.0334 158.41 35.0276 158.594 34.3754C158.738 33.8607 158.712 33.8132 158.472 34.1561C157.744 35.197 158.064 35.3255 161.382 35.3255H164.607L165.153 34.0506C167.562 28.4295 168.504 23.4377 167.387 22.2021C166.214 20.9042 161.504 20.3191 157.915 21.0253ZM184.618 20.9852C184.503 21.1702 183.322 21.297 181.723 21.297H179.022L178.525 22.6857C177.828 24.6268 177.932 24.9901 178.65 23.1235L179.24 21.5892H181.978C184.419 21.5892 185.457 21.3208 184.957 20.8199C184.876 20.7398 184.723 20.8142 184.618 20.9852ZM40.033 21.6293C38.1811 22.2757 36.1173 23.9402 35.3227 25.4295C34.853 26.3092 34.8513 26.3354 35.3088 25.6808C36.9945 23.2675 39.7793 21.6178 42.8611 21.2086C43.6769 21.1006 43.6671 21.0908 42.7146 21.072C42.1524 21.0605 40.9454 21.3118 40.033 21.6293ZM111.908 21.2242C111.85 21.3445 111.963 22.5613 112.16 23.9271L112.517 26.4115L112.359 23.8445L112.201 21.2766L115.378 21.36L118.556 21.4435L118.736 24.8044C118.836 26.6529 118.94 28.6914 118.968 29.3346L119.02 30.5031L120.65 28.7495C121.546 27.7855 123.384 25.72 124.732 24.1595L127.187 21.324L129.155 21.2217L131.123 21.1194L129.164 21.0622L127.205 21.0049L123.319 25.4148L119.432 29.8247L119.245 28.1177C119.142 27.1799 119.043 25.4034 119.025 24.1701C118.978 20.8388 119.172 21.0049 115.327 21.0049C113.505 21.0049 111.967 21.1039 111.908 21.2242ZM140.242 21.6776C139.888 22.0474 138.612 23.5818 137.406 25.0875C136.2 26.5924 134.82 28.2863 134.337 28.8509L133.461 29.8771L133.285 28.5825L133.11 27.2888L133.07 28.4573C132.992 30.7789 133.357 30.549 136.988 25.9852C140.875 21.0998 140.659 21.2389 144.224 21.3576L146.805 21.4435L143.494 25.2651C141.672 27.3673 139.029 30.4246 137.619 32.0604L135.055 35.0334H131.867C128.793 35.0334 128.674 35.0096 128.552 34.3754C128.443 33.8116 128.42 33.8329 128.385 34.5219L128.346 35.3255H131.736H135.125L136.362 33.9376C139.923 29.9434 147.05 21.4934 147.05 21.2659C147.05 20.6047 140.914 20.9762 140.242 21.6776ZM147.718 21.2397C147.357 21.4689 144.885 28.2896 145.09 28.4933C145.151 28.5547 145.637 27.3223 146.171 25.7552C147.747 21.1219 147.555 21.3379 150.194 21.2217L152.457 21.1227L150.266 21.0679C149.059 21.0384 147.914 21.1154 147.718 21.2397ZM172.701 21.2168C173.227 21.2815 174.016 21.2807 174.455 21.2136C174.894 21.1473 174.464 21.0941 173.499 21.0957C172.535 21.0974 172.176 21.1514 172.701 21.2168ZM177.062 21.2086C177.687 21.3306 177.666 21.4296 176.075 25.9181C175.18 28.4401 174.128 31.5228 173.737 32.7682L173.024 35.0334H169.995C167.357 35.0334 166.949 34.9671 166.833 34.5219C166.734 34.1422 166.691 34.1823 166.666 34.6774C166.632 35.3394 166.659 35.3443 169.908 35.2617L173.184 35.179L173.541 34.1561C173.738 33.5939 174.75 30.7003 175.79 27.7266C178.364 20.3674 178.227 20.9975 177.246 21.045C176.585 21.0769 176.549 21.1088 177.062 21.2086ZM132.43 22.6988L132.571 24.0736L132.671 22.9394C132.725 22.315 132.662 21.6964 132.529 21.5646C132.398 21.4321 132.353 21.9427 132.43 22.6988ZM202.404 22.4582C199.879 23.3985 196.931 24.7561 198.926 24.0597C201.638 23.1137 205.103 21.8044 205.479 21.5843C206.347 21.0769 205.355 21.3592 202.404 22.4582ZM195.925 22.8134C196.07 23.2495 196.734 23.4901 196.734 23.1063C196.734 22.9492 196.526 22.7414 196.272 22.6432C195.987 22.5343 195.853 22.5998 195.925 22.8134ZM212.345 23.0908C212.259 23.2291 213.798 23.3428 215.762 23.3428C217.727 23.3428 219.27 23.2774 219.189 23.1972C218.925 22.9328 212.505 22.833 212.345 23.0908ZM169.843 25.4525C169.476 26.4623 168.725 28.5171 168.175 30.0187C167.623 31.5195 167.247 32.8239 167.34 32.9164C167.432 33.0088 167.508 33.0293 167.508 32.9605C167.508 32.8926 168.233 30.8108 169.117 28.3346C170.002 25.8583 170.677 23.7839 170.617 23.7242C170.558 23.6644 170.21 24.4426 169.843 25.4525ZM132.817 25.6808C132.817 26.5654 132.872 26.9271 132.939 26.4844C133.006 26.0425 133.006 25.3191 132.939 24.8772C132.872 24.4353 132.817 24.797 132.817 25.6808ZM196.588 24.8633C195.724 25.3215 194.666 25.5286 192.536 25.6554L189.652 25.8273L189.134 27.2888C188.849 28.0924 188.124 30.1635 187.522 31.8918L186.428 35.0334H183.252C181.505 35.0334 180.075 34.9834 180.075 34.9221C180.075 34.8607 180.681 33.1185 181.422 31.0498C182.161 28.9811 182.876 26.9271 183.008 26.4844L183.25 25.6808H180.661C178.441 25.6808 178.053 25.6079 177.939 25.1693C177.838 24.7847 177.797 24.8207 177.771 25.3158C177.739 25.9484 177.83 25.9729 180.222 25.9729C183.175 25.9729 183.084 25.5531 181.245 30.6774C180.441 32.9172 179.783 34.8795 179.783 35.0374C179.783 35.2101 181.131 35.3255 183.137 35.3255H186.49L186.888 34.5219C187.107 34.08 187.867 31.9753 188.575 29.846L189.865 25.9729L192.349 25.9721C194.454 25.9713 199.923 24.3224 198.049 24.2536C197.889 24.2479 197.231 24.522 196.588 24.8633ZM21.1142 24.6358C21.3376 24.8592 31.2737 24.9451 31.493 24.7258C31.61 24.6079 29.295 24.5122 26.3482 24.5122C23.4014 24.5122 21.0463 24.5679 21.1142 24.6358ZM44.1483 25.0818C41.9372 25.486 40.6352 26.7798 40.222 28.9827C39.5796 32.4098 50.6024 31.9507 51.9215 28.4958C53.0385 25.5719 49.6368 24.0777 44.1483 25.0818ZM68.6496 25.2078C65.914 26.2192 64.4811 29.81 66.4148 30.81C67.8575 31.5555 75.0955 31.3157 76.2305 30.4843C77.7559 29.3673 78.7403 26.5711 77.9736 25.5351C77.4089 24.7724 70.4843 24.5294 68.6496 25.2078ZM86.3253 26.342C85.9816 27.184 85.2509 29.1226 84.7026 30.6496C84.1535 32.1766 83.3589 34.2437 82.9367 35.2437C82.039 37.3697 81.935 38.1282 82.8049 36.2019C83.7108 34.197 87.1584 25.0196 87.0479 24.9091C86.9939 24.8551 86.669 25.4999 86.3253 26.342ZM95.5674 25.2086C92.2933 25.9132 90.4423 29.6284 92.7639 30.8362C96.5944 32.8304 103.184 31.0931 103.693 27.9549C104.169 25.0261 101.154 24.0073 95.5674 25.2086ZM51.2202 25.8428C52.8495 26.6857 51.8454 29.4811 49.6392 30.2454C47.0779 31.1316 41.7301 31.0841 40.812 30.166C40.06 29.4148 40.9716 26.9475 42.33 26.0572C43.8921 25.0343 49.3994 24.9009 51.2202 25.8428ZM77.679 25.7413C78.6659 26.729 77.3083 29.7683 75.5521 30.5015C73.882 31.1995 67.2609 31.1234 66.3624 30.3951C65.049 29.3321 66.8591 25.9205 69.0219 25.3813C70.9 24.914 77.1094 25.1718 77.679 25.7413ZM102.335 25.4786C103.553 25.8935 103.84 27.2348 103.092 29.0236C101.923 31.8223 92.1714 32.0596 92.2909 29.2871C92.4341 25.9876 97.8293 23.9418 102.335 25.4786ZM154.211 25.4156C152.463 25.9467 152.015 26.5916 150.676 30.5031C149.969 32.5669 149.437 34.3026 149.494 34.3591C149.551 34.4163 149.955 33.4401 150.392 32.1905C152.59 25.9009 152.828 25.6415 156.54 25.4467C160.677 25.229 161.291 25.8092 160.358 29.0555C160.267 29.3698 160.4 29.1824 160.652 28.6398C161.298 27.2503 161.11 25.9295 160.202 25.4729C159.366 25.0523 155.527 25.0155 154.211 25.4156ZM200.533 25.4009C200.533 25.6071 203.474 25.6914 209.594 25.6611C214.661 25.6366 218.653 25.5024 218.653 25.3567C218.653 25.2102 214.694 25.0965 209.594 25.0965C203.503 25.0965 200.533 25.1963 200.533 25.4009ZM34.0985 27.7879C32.7728 31.076 33.2466 33.319 35.5256 34.5383C37.4921 35.5906 45.0312 35.4957 47.6687 34.3852C49.8192 33.481 49.933 33.4982 49.3422 34.6414C48.3152 36.6274 48.2931 36.6324 41.0043 36.7207L34.3849 36.8009L30.6575 38.449C28.6076 39.3549 26.9783 40.1446 27.0364 40.2027C27.0953 40.2616 28.7622 39.5824 30.7409 38.6945L34.3391 37.0792H40.8423H47.3455L48.2579 36.3116C49.1286 35.5792 50.4911 33.3599 50.23 33.0989C50.1621 33.0309 49.3962 33.3042 48.5288 33.706C46.1712 34.7993 44.1933 35.1037 40.2637 34.9785C34.1173 34.783 32.5805 33.0858 34.2278 28.3141C34.8939 26.3845 34.8072 26.031 34.0985 27.7879ZM112.652 28.0187C112.652 28.9033 112.706 29.265 112.773 28.8231C112.841 28.3804 112.841 27.657 112.773 27.2151C112.706 26.7732 112.652 27.1349 112.652 28.0187ZM12.6119 27.1423C12.6119 27.3027 12.9907 27.4344 13.4531 27.4344C13.9154 27.4344 14.458 27.6316 14.6577 27.8731C14.8778 28.1382 15.5177 28.3117 16.2771 28.3117C17.0071 28.3117 17.593 28.4639 17.6789 28.6766C17.7967 28.9688 17.8311 28.9688 17.8499 28.6766C17.8777 28.2307 19.9596 28.1767 20.3933 28.6104C20.7263 28.9434 31.2712 28.8853 31.0241 28.5523C30.9439 28.4434 27.4063 28.2863 23.1633 28.202C12.2289 27.986 12.1659 27.4344 23.0749 27.4344C28.3743 27.4344 31.3162 27.3305 31.3162 27.1423C31.3162 26.9533 28.0045 26.8502 21.9644 26.8502C15.9244 26.8502 12.6119 26.9533 12.6119 27.1423ZM123.861 30.8804L120.112 35.0334H117.487C115.076 35.0334 114.877 34.99 115.033 34.4974C115.137 34.1708 114.985 33.765 114.643 33.4556C113.917 32.7993 113.65 33.2494 114.169 34.2502C114.54 34.9654 114.528 35.0334 114.026 35.0334C113.627 35.0334 113.446 34.7756 113.36 34.0833C113.244 33.1479 113.242 33.1504 113.196 34.2298L113.148 35.3255H116.631H120.114L121.856 33.499C122.814 32.4941 124.429 30.7224 125.444 29.5612C126.46 28.4009 127.338 27.4983 127.397 27.5564C127.455 27.6153 127.687 29.0252 127.913 30.6905C128.304 33.5677 128.317 33.6021 128.165 31.3804C128.078 30.094 127.916 28.5212 127.808 27.8853L127.61 26.7282L123.861 30.8804ZM193.52 27.7298C193.52 27.9238 197.177 28.0334 204.114 28.0474C215.135 28.0694 215.824 28.0915 216.7 28.459C217.395 28.7495 218.038 28.1636 217.555 27.6807C217.299 27.4246 217.114 27.4279 216.793 27.6947C216.503 27.9344 216.306 27.9492 216.178 27.7413C215.92 27.324 193.52 27.3133 193.52 27.7298ZM218.507 28.0261C218.18 28.1554 220.547 28.3018 223.869 28.3575C227.14 28.4123 229.877 28.3591 229.951 28.238C230.129 27.95 230.134 27.95 224.207 27.8673C221.393 27.828 218.829 27.8992 218.507 28.0261ZM12.6119 28.6038C12.6119 29.1709 12.4171 29.1881 6.13404 29.1881C-2.03198 29.1881 -2.04753 29.3837 6.10458 29.5441C12.5619 29.6717 12.6814 29.6586 12.9899 28.8231C13.2092 28.2282 13.7812 28.1333 13.7812 28.6914C13.7812 28.9 13.6233 29.229 13.4302 29.4221C13.2354 29.6169 13.2092 29.7724 13.3721 29.7724C13.8361 29.7724 14.3655 29.1185 14.3655 28.5449C14.3655 28.1554 14.138 28.0187 13.4891 28.0187C12.8066 28.0187 12.6119 28.1488 12.6119 28.6038ZM211.347 28.6038C211.347 28.7642 211.997 28.896 212.791 28.896C213.586 28.896 214.316 28.7642 214.415 28.6038C214.527 28.4221 213.98 28.3117 212.972 28.3117C212.078 28.3117 211.347 28.4426 211.347 28.6038ZM144.571 29.3943C144.14 30.4524 142.667 34.8582 142.667 35.0882C142.667 35.3869 149.013 35.404 149.198 35.1062C149.273 34.9859 147.9 34.9278 146.146 34.9785C144.393 35.0284 142.959 35.0023 142.959 34.9196C142.959 34.8378 143.421 33.4941 143.985 31.9344C144.55 30.3738 144.96 29.0465 144.898 28.9843C144.836 28.9221 144.689 29.1063 144.571 29.3943ZM112.944 31.526C112.944 32.4106 112.998 32.7715 113.066 32.3296C113.133 31.8877 113.133 31.1643 113.066 30.7224C112.998 30.2805 112.944 30.6422 112.944 31.526ZM191.766 30.3575C191.766 30.54 193.514 30.6496 196.425 30.6496C199.215 30.6496 201.156 30.5318 201.264 30.3575C201.382 30.1668 199.757 30.0645 196.605 30.0645C193.574 30.0645 191.766 30.1742 191.766 30.3575ZM28.0135 30.5432C27.5004 31.0563 27.9341 31.2593 29.4169 31.1987C31.1484 31.1291 31.6787 30.6496 30.0249 30.6496C29.4758 30.6496 28.8441 30.5792 28.6215 30.4941C28.3997 30.409 28.1256 30.4303 28.0135 30.5432ZM159.213 31.9982C158.954 32.7576 158.793 33.4294 158.855 33.4908C158.917 33.553 159.179 32.9826 159.437 32.2232C159.697 31.4638 159.857 30.792 159.796 30.7298C159.734 30.6684 159.472 31.2388 159.213 31.9982ZM83.4146 38.0292C82.3311 39.404 82.8884 40.4793 84.1421 39.4335C84.9129 38.7903 84.9399 38.6389 84.3818 38.0808C83.872 37.571 83.7795 37.5661 83.4146 38.0292ZM80.9031 40.0505C80.4752 41.0423 80.1716 41.9007 80.2288 41.958C80.2861 42.0153 80.6846 41.2518 81.1143 40.2616C81.5431 39.2706 81.8467 38.4122 81.7877 38.3541C81.7288 38.2952 81.3311 39.0587 80.9031 40.0505ZM84.3286 38.4883C84.4628 38.7043 83.5291 39.7092 83.1953 39.7092C83.12 39.7092 83.2083 39.3803 83.3916 38.9785C83.7312 38.233 84.0635 38.0587 84.3286 38.4883ZM94.0175 39.1446C94.1239 39.3156 93.9668 39.6479 93.6698 39.8819C93.1657 40.278 93.1869 40.3017 93.9832 40.2272C94.4529 40.1839 94.8972 39.9654 94.9709 39.742C95.0511 39.4973 94.9742 39.4163 94.7778 39.5374C94.5699 39.6667 94.5143 39.575 94.6247 39.2862C94.7393 38.9883 94.6321 38.8328 94.3121 38.8328C94.0413 38.8328 93.9111 38.9711 94.0175 39.1446ZM25.6903 40.6094C24.3777 41.3745 25.5536 41.4604 36.3579 41.3933L47.5369 41.3238L36.4307 41.2346C26.6526 41.1568 25.4128 41.0963 26.056 40.7305C26.4578 40.5014 26.6551 40.314 26.4947 40.3132C26.3335 40.3123 25.9718 40.4457 25.6903 40.6094ZM82.9727 40.9261C82.5308 41.0873 82.1691 41.3541 82.1691 41.5185C82.1691 41.683 82.3998 41.7338 82.6805 41.6307C82.962 41.5275 82.5537 42.0529 81.7738 42.7976C80.994 43.5431 80.3311 44.3033 80.3017 44.4882C80.21 45.0692 77.494 48.615 77.4817 48.1698C77.4752 47.9374 77.2764 48.1936 77.039 48.7402C76.3606 50.304 76.6888 50.0872 78.2207 47.9612C79.0005 46.8785 79.9105 45.7713 80.2419 45.5013C80.5742 45.2313 80.7501 44.9146 80.6331 44.7975C80.3189 44.4833 80.9891 43.8008 81.6118 43.8008C81.9498 43.8008 82.093 43.6511 81.9964 43.3974C81.9113 43.1756 82.1543 42.7485 82.5365 42.4481C82.9187 42.147 83.264 41.7698 83.3041 41.6094C83.3442 41.4482 83.6642 41.1568 84.0152 40.9621C84.7934 40.5292 84.1232 40.5055 82.9727 40.9261ZM84.7051 41.5807C84.5398 42.0103 84.7288 42.3393 85.1404 42.3393C85.2746 42.3393 85.3843 42.0766 85.3843 41.755C85.3843 41.0848 84.9391 40.9703 84.7051 41.5807ZM79.4449 43.3761C78.7583 44.8156 78.8549 45.061 79.5734 43.7002C79.8991 43.0823 80.1143 42.5251 80.0513 42.4621C79.9874 42.399 79.7149 42.8098 79.4449 43.3761Z" fill="url(#paint1_linear_2672_248)"/>
<defs>
<linearGradient id="paint0_linear_2672_248" x1="25.4121" y1="24.6022" x2="212.795" y2="24.6022" gradientUnits="userSpaceOnUse">
<stop stop-color="#A144E8"/>
<stop offset="1" stop-color="#AFA0BB"/>
</linearGradient>
<linearGradient id="paint1_linear_2672_248" x1="0" y1="24.8798" x2="230" y2="24.8798" gradientUnits="userSpaceOnUse">
<stop stop-color="#A144E8"/>
<stop offset="1" stop-color="#AFA0BB"/>
</linearGradient>
</defs>
</svg>
