<svg width="167" height="37" viewBox="0 0 167 37" fill="none" xmlns="http://www.w3.org/2000/svg">
<path fill-rule="evenodd" clip-rule="evenodd" d="M132.142 0.971966C132.062 1.18111 131.76 2.25954 131.47 3.36826C130.236 8.08777 130.143 8.2167 127.409 8.99091C127.146 9.06577 126.932 9.26899 126.932 9.44367C126.932 9.65104 127.097 9.73778 127.409 9.69441C127.721 9.65104 127.886 9.73838 127.886 9.94634C127.886 10.1311 127.69 10.2678 127.42 10.2713C127.164 10.2749 126.885 10.3462 126.801 10.4306C126.717 10.5144 126.758 10.5833 126.891 10.5833C127.057 10.5833 127.075 10.7354 126.949 11.0604C126.847 11.323 126.641 11.9487 126.491 12.4508C126.187 13.4751 125.775 13.9207 125.995 12.9885C126.098 12.553 126.072 12.4472 125.902 12.6058C125.772 12.7259 125.604 13.1359 125.528 13.5155L125.39 14.2065L126.452 13.7877C130.109 12.3468 130.061 12.4098 131.267 7.50608C132.11 4.08305 132.733 -0.563374 132.142 0.971966ZM126.318 11.4555C126.188 11.8305 126.118 12.1745 126.163 12.2202C126.208 12.2654 126.353 11.9956 126.484 11.6207C126.614 11.2458 126.684 10.9018 126.639 10.856C126.593 10.8109 126.449 11.0806 126.318 11.4555ZM137.69 12.0794C135.022 12.982 135.116 12.9107 134.607 14.4109L134.213 15.5702L132.176 15.6308L130.14 15.6914L129.702 16.8589C129.021 18.6807 128.993 18.6468 131.16 18.6468H133.056L132.88 19.2303C132.784 19.5517 132.265 21.0431 131.728 22.5452C131.191 24.0472 130.751 25.3122 130.751 25.3568C130.751 25.4013 131.789 25.4376 133.058 25.4376H135.363L136.158 23.1566C136.595 21.9017 137.122 20.3978 137.328 19.8143L137.705 18.7532L139.819 18.6468C140.982 18.5886 142.067 18.4382 142.231 18.3135C142.836 17.8506 149.923 15.14 152.979 14.203C154.686 13.6795 155.057 13.2232 153.616 13.4211C153.12 13.4888 152.369 13.5904 151.948 13.6468C151.526 13.7033 150.715 13.932 150.144 14.1549C149.574 14.3777 148.343 14.7253 147.409 14.9273C146.475 15.1293 145.557 15.3735 145.368 15.4703C145.177 15.5672 144.936 15.5589 144.828 15.4507C144.71 15.3325 144.346 15.3384 143.901 15.4662C142.779 15.7876 138.815 15.7407 138.815 15.4062C138.815 15.2576 139.105 14.3818 139.46 13.4603C140.342 11.1697 140.353 11.1786 137.69 12.0794ZM128.021 14.0259C127.279 14.3628 126.724 14.6908 126.789 14.7556C126.97 14.9368 129.043 14.3521 129.295 14.0491C129.788 13.4543 129.301 13.4454 128.021 14.0259ZM42.0494 15.2529C40.2693 15.4198 39.7155 15.5951 39.7155 15.9908C39.7155 16.1394 39.5723 16.3794 39.397 16.525C39.1606 16.7211 39.0786 16.7247 39.0786 16.5393C39.0786 15.3598 31.9616 14.8542 29.2658 15.8423C25.0597 17.3836 22.7977 23.2801 25.8048 24.863C27.6158 25.8161 32.8029 25.6022 35.2367 24.4738C35.8665 24.1821 36.4226 23.9836 36.4719 24.033C36.6615 24.2225 35.6722 25.8339 35.04 26.3657L34.3775 26.923H29.68H24.9824L21.7169 28.3556L18.4519 29.7875L26.3627 29.8434C38.7999 29.9307 38.5551 30.0686 41.9763 21.0603C44.4231 14.6183 44.2877 15.0319 43.9312 15.0717C43.7719 15.0889 42.9252 15.1709 42.0494 15.2529ZM51.3452 15.2648C47.0375 15.6302 44.8545 16.8298 43.6614 19.4887C41.5093 24.2843 42.9656 25.6438 50.2573 25.6479C57.5395 25.6521 60.0475 24.4031 61.385 20.1061C62.6642 15.9962 59.6815 14.5577 51.3452 15.2648ZM71.5554 15.4935C70.9184 15.5987 69.8846 15.9201 69.2583 16.2065L68.1193 16.7282L68.2595 16.0883L68.4003 15.4484L66.316 15.509L64.2316 15.5702L62.3077 20.6628C60.2245 26.1785 58.4064 30.5296 57.0968 33.1357C56.6405 34.043 56.2674 34.8974 56.2674 35.0346C56.2674 35.3228 58.2489 32.6687 58.3066 32.3026C58.328 32.1684 58.8092 31.6164 59.3755 31.0751C59.9417 30.5344 60.2382 30.1529 60.0338 30.2278C59.8259 30.3038 59.6625 30.2629 59.6625 30.1345C59.6625 29.8861 61.5335 29.2825 62.7848 29.1274C63.8716 28.9925 63.9613 28.8772 64.7432 26.6087C65.5097 24.3847 65.4847 24.4073 66.5234 25.0199C69.7432 26.92 76.8489 25.5279 78.85 22.6046C82.5387 17.216 79.4317 14.1875 71.5554 15.4935ZM114.71 15.4591C113.579 15.6979 112.429 16.1845 111.601 16.7734C111.029 17.181 110.958 17.1935 111.084 16.8655C111.165 16.6563 111.288 16.2558 111.358 15.9748L111.487 15.4638H109.455C107.705 15.4638 107.395 15.5179 107.216 15.8512C107.022 16.2154 103.801 25.1898 103.801 25.3687C103.801 25.4144 104.818 25.4245 106.061 25.3918L108.322 25.3312L109.327 22.3788C110.615 18.5993 111.066 18.2226 114.305 18.2267C117.505 18.2309 117.557 18.6872 115.103 25.172C115.027 25.374 115.535 25.4376 117.225 25.4376H119.448L120.212 23.2623C122.185 17.6474 122.248 16.6213 120.671 15.8049C119.723 15.3141 116.329 15.1174 114.71 15.4591ZM81.6034 16.995C82.0075 21.2659 82.364 25.1363 82.3658 25.2783C82.3675 25.3657 82.5535 25.4376 82.7805 25.4376C83.159 25.4376 83.1685 25.3912 82.8975 24.869C82.5202 24.1423 82.7145 23.8155 83.2416 24.292C83.4893 24.5166 83.5998 24.8113 83.5244 25.0484C83.4109 25.4061 83.5559 25.4376 85.3063 25.4376H87.2124L89.8945 22.4667C91.3692 20.8328 92.6075 19.4959 92.6449 19.4959C92.683 19.4959 92.8226 20.4269 92.9557 21.5648C93.0882 22.7026 93.2492 24.0395 93.3128 24.5356L93.4292 25.4376H95.7459H98.0626L99.9241 23.279C100.948 22.0912 102.867 19.8714 104.19 18.3449L106.594 15.5702L104.72 15.5078C102.131 15.4216 102.288 15.3206 99.4631 18.8714C97.8219 20.9338 96.8778 21.9599 96.7833 21.784C96.7031 21.6343 96.5207 20.2225 96.3781 18.6468C96.062 15.1554 96.2783 15.4638 94.1446 15.4638H92.3651L90.5754 17.5327C89.5915 18.6706 88.2534 20.175 87.6028 20.8749L86.4192 22.1482L86.3818 21.2998C86.3616 20.8328 86.2855 19.3527 86.213 18.0104L86.0823 15.5702L83.7698 15.5096L81.4573 15.449L81.6034 16.995ZM124.488 15.7294C124.435 15.875 123.875 17.4745 123.242 19.2837C122.61 21.0924 121.892 23.0775 121.647 23.6949C120.938 25.481 120.894 25.4376 123.416 25.4376H125.631L126.148 23.7929C126.432 22.8886 127.198 20.6444 127.85 18.806L129.036 15.4638H126.81C125.222 15.4638 124.556 15.5399 124.488 15.7294ZM142.846 16.7775C142.846 17.0562 142.365 16.8815 142.259 16.5648C142.207 16.4097 142.304 16.3622 142.511 16.4412C142.696 16.5125 142.846 16.6634 142.846 16.7775ZM37.2141 18.5814C39.1404 19.7068 37.7013 21.9647 34.7275 22.4822C30.2504 23.2617 28.191 22.0567 29.8018 19.5998C30.8261 18.0372 35.2426 17.4305 37.2141 18.5814ZM56.6161 18.541C57.1729 19.2932 56.4581 21.3235 55.3506 22.1346C54.5264 22.7383 49.271 22.9123 48.2235 22.3711C46.8194 21.645 47.8598 19.0378 49.8461 18.3034C51.1783 17.8108 56.2062 17.9873 56.6161 18.541ZM74.3379 18.2576C75.5316 18.6153 75.7467 20.2861 74.7705 21.6129C73.4152 23.4542 66.6654 23.27 66.6654 21.3919C66.6654 20.6741 67.2993 19.3016 67.8365 18.8559C68.6933 18.1447 72.7235 17.774 74.3379 18.2576ZM61.2691 27.6503C61.6743 28.0555 61.6547 28.1654 61.095 28.6324C60.385 29.2248 60.0516 29.1595 60.2186 28.4613C60.4676 27.4185 60.789 27.1702 61.2691 27.6503Z" fill="white"/>
<path fill-rule="evenodd" clip-rule="evenodd" d="M132.066 0.677531C131.723 1.62702 131.76 1.93123 132.122 1.1398C132.509 0.296073 132.511 0.747646 132.132 3.04947C131.96 4.09996 131.829 5.15046 131.841 5.38397C131.872 5.9716 132.634 1.51412 132.649 0.662082C132.664 -0.226799 132.391 -0.219668 132.066 0.677531ZM131.308 3.18256C131.131 4.06669 131.302 4.2384 131.493 3.36794C131.574 3.00134 131.595 2.65672 131.541 2.60265C131.487 2.54858 131.382 2.80942 131.308 3.18256ZM130.531 5.93773C129.986 7.74401 129.383 8.27877 127.322 8.78322C127.012 8.85927 126.713 9.0803 126.657 9.2746C126.601 9.46889 126.493 9.77608 126.418 9.95671C126.308 10.2205 126.44 10.2829 127.084 10.2752C127.651 10.2675 127.886 10.1712 127.886 9.94601C127.886 9.73805 127.721 9.65071 127.408 9.69409C127.096 9.73746 126.931 9.65072 126.931 9.44335C126.931 9.26866 127.146 9.06545 127.408 8.99059C127.671 8.91631 128.389 8.64716 129.004 8.39285L130.122 7.93059L130.676 6.17183C130.981 5.20452 131.188 4.37209 131.138 4.32158C131.088 4.27108 130.815 4.99835 130.531 5.93773ZM127.472 4.62283C127.204 5.05658 126.507 7.25857 126.606 7.3578C126.661 7.41365 126.806 7.18311 126.929 6.84563C127.05 6.50873 127.307 5.87356 127.498 5.43507C127.816 4.70542 127.797 4.09818 127.472 4.62283ZM131.318 7.23778C131.123 8.01674 130.971 8.77787 130.982 8.92879C130.992 9.07971 131.181 8.53486 131.401 7.71787C131.621 6.90088 131.773 6.14035 131.738 6.02686C131.703 5.91397 131.514 6.45882 131.318 7.23778ZM125.684 9.86758C125.406 10.4766 125.56 10.8682 125.878 10.3643C126.067 10.0666 126.161 9.30966 126.01 9.30966C125.97 9.30966 125.823 9.56099 125.684 9.86758ZM130.427 10.6008C129.965 12.1237 129.49 12.5449 127.143 13.5087C125.752 14.0803 125.536 14.1195 125.43 13.8206C125.307 13.4766 125.021 13.886 125.021 14.4059C125.021 14.6037 128.849 13.0993 129.604 12.6049C130.041 12.3185 131.14 9.62813 130.913 9.40057C130.861 9.34947 130.642 9.88898 130.427 10.6008ZM126.289 10.9145C126.177 11.2092 126.026 11.6857 125.954 11.9733C125.882 12.2615 125.738 12.5491 125.634 12.6132C125.53 12.6774 125.452 12.8913 125.459 13.0886C125.469 13.3488 125.525 13.3162 125.664 12.9703C125.927 12.3162 126.16 12.3667 125.99 13.0411C125.763 13.9472 126.198 13.4338 126.491 12.4504C126.64 11.9484 126.843 11.331 126.94 11.0779C127.068 10.747 127.03 10.5848 126.805 10.4986C126.604 10.4214 126.421 10.5687 126.289 10.9145ZM126.483 11.6204C126.352 11.9953 126.208 12.2651 126.163 12.2199C126.117 12.1742 126.187 11.8301 126.318 11.4552C126.449 11.0803 126.592 10.8105 126.638 10.8557C126.683 10.9014 126.614 11.2455 126.483 11.6204ZM139.027 11.4314C138.501 11.6519 138.179 11.8379 138.311 11.8444C138.443 11.8509 138.896 11.7113 139.319 11.5348C140.296 11.1266 140.305 11.2633 139.451 13.4825C139.101 14.3916 138.814 15.2573 138.814 15.4059C138.814 15.7023 142.902 15.7665 143.907 15.4849C144.199 15.4035 143.22 15.3767 141.732 15.4255C140.244 15.4748 139.027 15.4623 139.027 15.3975C139.027 15.3334 139.313 14.5033 139.663 13.5538C140.633 10.9246 140.588 10.7767 139.027 11.4314ZM122.398 12.599C122.465 12.7737 122.605 12.9169 122.709 12.9169C122.813 12.9169 122.899 12.7737 122.899 12.599C122.899 12.4237 122.759 12.2805 122.587 12.2805C122.398 12.2805 122.323 12.4047 122.398 12.599ZM135.755 12.5021C135.15 12.6828 134.792 13.0298 134.785 13.4415C134.784 13.555 134.931 13.4362 135.113 13.1765C135.295 12.9169 135.605 12.7036 135.803 12.7018C136 12.7 136.305 12.6061 136.48 12.4926C136.861 12.2466 136.598 12.2496 135.755 12.5021ZM48.3994 13.2062C46.9401 13.6857 45.8902 14.2674 46.0958 14.4825C46.1617 14.5514 46.5664 14.4296 46.9948 14.2116C47.4226 13.9935 48.3946 13.6465 49.1552 13.4403C49.9151 13.2348 50.5372 12.9852 50.5372 12.8854C50.5372 12.6109 49.9353 12.7012 48.3994 13.2062ZM127.832 13.883C126.134 14.6762 125.81 15.1516 127.09 14.9727C129.085 14.6934 129.689 14.3542 129.689 13.5134C129.689 13.0226 129.663 13.028 127.832 13.883ZM152.289 13.2734C152.056 13.3257 151.053 13.64 150.061 13.9721C148.491 14.4974 147.756 14.6792 145.225 15.1694C144.958 15.2217 144.795 15.3548 144.863 15.4653C144.937 15.5853 145.134 15.5918 145.349 15.4807C145.548 15.3779 146.475 15.129 147.409 14.927C148.342 14.7249 149.573 14.3774 150.144 14.1545C150.714 13.9317 151.526 13.703 151.947 13.6465C152.369 13.5901 153.119 13.4885 153.615 13.4207C154.783 13.2603 154.821 13.6679 153.669 13.9781C152.724 14.2324 152.482 14.5318 153.403 14.3049C155.714 13.7368 154.645 12.7463 152.289 13.2734ZM129.295 14.0488C129.043 14.3518 126.969 14.9365 126.788 14.7552C126.724 14.6905 127.279 14.3625 128.021 14.0256C129.301 13.4451 129.788 13.454 129.295 14.0488ZM150.843 14.8658C150.165 15.1022 149.647 15.3328 149.693 15.3779C149.738 15.4237 150.436 15.2294 151.245 14.9472C152.053 14.6649 152.57 14.4344 152.395 14.435C152.22 14.4356 151.522 14.6293 150.843 14.8658ZM121.626 14.8271C121.626 14.9436 121.918 15.0393 122.275 15.0393C122.654 15.0393 122.869 14.9507 122.793 14.8271C122.721 14.7101 122.428 14.615 122.144 14.615C121.859 14.615 121.626 14.7101 121.626 14.8271ZM43.9247 14.9941C44.1528 15.1545 44.0227 15.6685 43.2616 17.6096C42.7411 18.9388 41.8112 21.3975 41.195 23.0736C39.5242 27.6214 38.5225 28.7997 35.6829 29.5549C35.0412 29.726 34.7269 29.8716 34.9854 29.8793C37.1755 29.9446 39.4737 27.9571 40.7369 24.9067C43.3947 18.4849 44.5028 15.0404 43.9591 14.8854C43.7054 14.8129 43.6983 14.8349 43.9247 14.9941ZM34.4096 15.2341C37.1048 15.391 39.078 15.9424 39.078 16.5389C39.078 16.7243 39.16 16.7208 39.3965 16.5247C39.5718 16.3791 39.715 16.1391 39.715 15.9905C39.715 15.5948 40.2687 15.4195 42.0489 15.2526L43.6407 15.1034L42.3073 15.0713C40.81 15.0351 39.5028 15.4688 39.5028 16.0012C39.5028 16.1919 39.4309 16.3108 39.3436 16.2662C37.3228 15.2306 37.0691 15.1718 34.4096 15.126L31.7572 15.0803L34.4096 15.2341ZM49.4261 15.2585C46.6614 15.7237 44.6603 17.0612 43.5967 19.1545C41.63 23.0255 42.4505 25.2703 45.933 25.5478L47.0358 25.6351L45.8813 25.426C42.6377 24.8383 42.0114 23.1634 43.6609 19.4884C44.8551 16.8277 47.0464 15.6239 51.3447 15.2686C53.2597 15.1106 53.2989 15.0981 51.9169 15.0939C51.0999 15.0909 49.9787 15.1652 49.4261 15.2585ZM56.7974 15.2407C61.9091 15.7107 62.8894 17.3417 60.7172 21.7647C59.3197 24.6102 57.369 25.3885 50.9614 25.6565L47.0358 25.8211L51.1742 25.7569C57.7962 25.6547 60.0463 24.5739 61.404 20.8437C62.836 16.9091 61.5995 15.3441 56.9032 15.1492L54.8877 15.0654L56.7974 15.2407ZM72.0759 15.1872C71.1128 15.3149 69.1395 15.8996 68.8401 16.1462C68.6398 16.3108 68.5745 16.2282 68.5745 15.8081V15.2514H66.4574C64.1568 15.2514 63.9423 15.3631 63.6096 16.7368C63.5389 17.0285 63.6684 16.8616 63.8972 16.3654L64.3131 15.4635H66.3546H68.3962L68.2572 16.0957L68.1187 16.7279L69.2483 16.2127C71.8703 15.0185 77.0735 14.9204 79.2369 16.025C81.361 17.1093 80.1436 22.3095 77.3165 24.2305C74.9131 25.8639 68.7206 26.3166 66.5228 25.0196C65.4842 24.407 65.5091 24.3844 64.7427 26.6084C63.9459 28.9197 63.8888 28.9886 62.6351 29.1461C62.1247 29.2102 61.653 29.3219 61.587 29.3944C61.5205 29.4669 61.9911 29.4604 62.6328 29.3796C64.0718 29.1984 64.1319 29.1336 64.8633 26.9898C65.6618 24.6476 65.6161 24.6969 66.5044 25.221C68.2304 26.2394 73.1852 26.221 75.9517 25.1859C79.6962 23.7849 82.0467 17.8675 79.5827 16.0446C78.4817 15.23 74.8662 14.817 72.0759 15.1872ZM114.66 15.2662C114.156 15.3655 113.225 15.6839 112.591 15.9739C111.374 16.5312 111.311 16.5247 111.66 15.8741C111.786 15.6388 111.795 15.4635 111.683 15.4635C111.575 15.4635 111.428 15.6934 111.358 15.9745C111.287 16.2555 111.167 16.6483 111.09 16.8473C110.982 17.1307 111.132 17.0903 111.779 16.6631C113.347 15.6281 114.317 15.3964 117.169 15.3762C122.443 15.3387 122.732 16.0886 120.212 23.262L119.447 25.4373H117.233C115.039 25.4373 115.02 25.4331 115.153 24.9595C115.258 24.5858 115.239 24.5513 115.064 24.8003C114.536 25.5561 114.768 25.6494 117.177 25.6494H119.519L119.916 24.7237C121.665 20.6423 122.349 17.0178 121.538 16.1206C120.686 15.1783 117.266 14.7535 114.66 15.2662ZM134.049 15.2371C133.965 15.3714 133.107 15.4635 131.947 15.4635H129.986L129.624 16.4718C129.119 17.8812 129.194 18.145 129.715 16.7897L130.144 15.6756H132.132C133.904 15.6756 134.658 15.4807 134.295 15.1171C134.236 15.0589 134.125 15.1129 134.049 15.2371ZM29.0674 15.7047C27.7228 16.1741 26.2243 17.3827 25.6474 18.4641C25.3063 19.1028 25.3051 19.1218 25.6372 18.6465C26.8612 16.8943 28.8832 15.6964 31.1209 15.3993C31.7133 15.3209 31.7061 15.3138 31.0145 15.3001C30.6063 15.2918 29.7299 15.4742 29.0674 15.7047ZM81.2553 15.4106C81.2131 15.498 81.2951 16.3815 81.4377 17.3732L81.6973 19.1771L81.5827 17.3131L81.4674 15.4486L83.7746 15.5092L86.0817 15.5698L86.2125 18.0101C86.2849 19.3523 86.361 20.8324 86.3812 21.2994L86.4186 22.1479L87.6022 20.8746C88.2528 20.1747 89.5874 18.675 90.5666 17.5419L92.3485 15.4831L93.7774 15.4088L95.2064 15.3346L93.7846 15.293L92.3621 15.2514L89.5404 18.4534L86.7181 21.6554L86.582 20.4159C86.5072 19.735 86.4353 18.445 86.4228 17.5496C86.3883 15.1308 86.5292 15.2514 83.7371 15.2514C82.4145 15.2514 81.2975 15.3233 81.2553 15.4106ZM101.828 15.7398C101.571 16.0084 100.644 17.1224 99.7685 18.2157C98.8933 19.3084 97.8909 20.5383 97.5403 20.9483L96.904 21.6934L96.7768 20.7534L96.6491 19.814L96.6206 20.6625C96.5641 22.3482 96.8285 22.1812 99.4649 18.8675C102.288 15.3203 102.13 15.4213 104.719 15.5075L106.593 15.5698L104.189 18.3446C102.866 19.8711 100.947 22.0909 99.9236 23.2786L98.062 25.4373H95.7471C93.5148 25.4373 93.4287 25.42 93.3401 24.9595C93.2611 24.5502 93.2439 24.5656 93.2189 25.0659L93.1904 25.6494H95.6515H98.1125L99.0109 24.6417C101.596 21.7415 106.771 15.6061 106.771 15.4409C106.771 14.9608 102.316 15.2306 101.828 15.7398ZM107.256 15.4219C106.994 15.5883 105.199 20.5407 105.348 20.6886C105.392 20.7332 105.745 19.8384 106.133 18.7005C107.277 15.3363 107.137 15.4932 109.054 15.4088L110.697 15.3369L109.106 15.2971C108.23 15.2757 107.398 15.3316 107.256 15.4219ZM125.396 15.4053C125.778 15.4522 126.351 15.4516 126.67 15.4029C126.988 15.3548 126.676 15.3161 125.976 15.3173C125.276 15.3185 125.015 15.3577 125.396 15.4053ZM128.562 15.3993C129.016 15.4878 129.001 15.5597 127.845 18.8188C127.196 20.65 126.432 22.8883 126.148 23.7926L125.63 25.4373H123.431C121.516 25.4373 121.22 25.3891 121.135 25.0659C121.064 24.7902 121.032 24.8193 121.014 25.1788C120.989 25.6595 121.009 25.663 123.368 25.603L125.747 25.543L126.006 24.8003C126.149 24.3921 126.884 22.2911 127.639 20.1319C129.508 14.7885 129.408 15.246 128.696 15.2805C128.216 15.3037 128.19 15.3268 128.562 15.3993ZM96.1559 16.4813L96.2581 17.4795L96.3306 16.656C96.3698 16.2026 96.3241 15.7535 96.2278 15.6578C96.1322 15.5615 96.0995 15.9323 96.1559 16.4813ZM146.963 16.3066C145.129 16.9893 142.989 17.9751 144.438 17.4694C146.407 16.7826 148.923 15.8319 149.196 15.672C149.826 15.3037 149.106 15.5086 146.963 16.3066ZM142.258 16.5645C142.364 16.8812 142.846 17.0559 142.846 16.7772C142.846 16.6631 142.695 16.5122 142.51 16.4409C142.303 16.3619 142.207 16.4094 142.258 16.5645ZM154.181 16.7659C154.119 16.8663 155.236 16.9489 156.662 16.9489C158.089 16.9489 159.209 16.9014 159.151 16.8432C158.959 16.6512 154.297 16.5788 154.181 16.7659ZM123.321 18.4807C123.055 19.2139 122.509 20.7059 122.109 21.7962C121.709 22.8859 121.436 23.833 121.503 23.9001C121.57 23.9673 121.626 23.9821 121.626 23.9322C121.626 23.8829 122.152 22.3713 122.794 20.5734C123.436 18.7754 123.926 17.2692 123.883 17.2258C123.84 17.1824 123.587 17.7475 123.321 18.4807ZM96.437 18.6465C96.437 19.2888 96.4768 19.5514 96.5255 19.2299C96.5742 18.9091 96.5742 18.3838 96.5255 18.063C96.4768 17.7421 96.437 18.0048 96.437 18.6465ZM142.74 18.0529C142.113 18.3856 141.344 18.536 139.798 18.628L137.704 18.7528L137.328 19.814C137.121 20.3975 136.594 21.9013 136.157 23.1562L135.363 25.4373H133.057C131.788 25.4373 130.75 25.401 130.75 25.3565C130.75 25.3119 131.19 24.0469 131.728 22.5448C132.265 21.0428 132.784 19.5514 132.88 19.2299L133.055 18.6465H131.176C129.564 18.6465 129.282 18.5936 129.199 18.2751C129.126 17.9959 129.096 18.022 129.077 18.3815C129.054 18.8408 129.12 18.8586 130.857 18.8586C133.001 18.8586 132.935 18.5538 131.599 22.2745C131.016 23.9007 130.538 25.3256 130.538 25.4402C130.538 25.5656 131.517 25.6494 132.973 25.6494H135.408L135.697 25.0659C135.856 24.7451 136.407 23.2168 136.922 21.6708L137.858 18.8586L139.662 18.858C141.191 18.8574 145.161 17.6601 143.801 17.6102C143.684 17.6061 143.207 17.8051 142.74 18.0529ZM15.3307 17.8877C15.493 18.0499 22.7074 18.1123 22.8666 17.9531C22.9516 17.8675 21.2707 17.798 19.1311 17.798C16.9915 17.798 15.2814 17.8384 15.3307 17.8877ZM32.0555 18.2115C30.45 18.5051 29.5047 19.4444 29.2047 21.0439C28.7382 23.5323 36.7417 23.199 37.6995 20.6904C38.5106 18.5675 36.0406 17.4825 32.0555 18.2115ZM49.8456 18.303C47.8593 19.0374 46.8189 21.6447 48.2229 22.3707C49.2704 22.912 54.5259 22.7379 55.35 22.1343C56.4575 21.3232 57.1723 19.2929 56.6156 18.5407C56.2056 17.9869 51.1777 17.8105 49.8456 18.303ZM62.6797 19.1266C62.4301 19.738 61.8995 21.1456 61.5015 22.2543C61.1028 23.363 60.5258 24.8639 60.2192 25.59C59.5674 27.1336 59.492 27.6844 60.1236 26.2857C60.7813 24.83 63.2846 18.1664 63.2043 18.0862C63.1651 18.0469 62.9292 18.5152 62.6797 19.1266ZM69.3903 18.3036C67.013 18.8152 65.669 21.5128 67.3546 22.3898C70.136 23.8378 74.9208 22.5763 75.2904 20.2977C75.6356 18.1711 73.4467 17.4314 69.3903 18.3036ZM37.1903 18.7641C38.3733 19.3761 37.6443 21.4058 36.0424 21.9608C34.1826 22.6043 30.2997 22.5698 29.6331 21.9031C29.087 21.3577 29.7489 19.5662 30.7352 18.9198C31.8695 18.1771 35.8683 18.0802 37.1903 18.7641ZM56.4017 18.6904C57.1183 19.4076 56.1325 21.6144 54.8574 22.1467C53.6447 22.6536 48.8373 22.5983 48.1849 22.0695C47.2312 21.2977 48.5455 18.8206 50.1159 18.429C51.4796 18.0897 55.9881 18.2769 56.4017 18.6904ZM74.3041 18.4997C75.1888 18.801 75.3968 19.7748 74.8537 21.0737C74.0052 23.1057 66.9245 23.278 67.0112 21.265C67.1152 18.8693 71.0326 17.3839 74.3041 18.4997ZM111.97 18.454C110.701 18.8396 110.376 19.3078 109.404 22.1479C108.89 23.6464 108.505 24.9067 108.546 24.9477C108.587 24.9893 108.88 24.2804 109.197 23.3731C110.794 18.8063 110.966 18.6179 113.661 18.4765C116.666 18.3185 117.111 18.7398 116.434 21.0968C116.368 21.325 116.464 21.1889 116.647 20.795C117.117 19.7861 116.98 18.8271 116.32 18.4956C115.714 18.1901 112.926 18.1634 111.97 18.454ZM145.605 18.4433C145.605 18.593 147.74 18.6542 152.183 18.6322C155.862 18.6144 158.761 18.5169 158.761 18.4112C158.761 18.3048 155.887 18.2222 152.183 18.2222C147.761 18.2222 145.605 18.2947 145.605 18.4433ZM24.7585 20.1765C23.7959 22.5638 24.1399 24.1925 25.7947 25.0778C27.2225 25.8419 32.6966 25.773 34.6116 24.9667C36.1731 24.3101 36.2557 24.3226 35.8267 25.1527C35.081 26.5947 35.065 26.5983 29.7727 26.6624L24.9664 26.7207L22.26 27.9173C20.7716 28.5751 19.5886 29.1485 19.6308 29.1906C19.6736 29.2334 20.8839 28.7403 22.3206 28.0956L24.9332 26.9227H29.655H34.3769L35.0394 26.3654C35.6716 25.8336 36.6609 24.2222 36.4714 24.0326C36.4221 23.9833 35.8659 24.1818 35.2361 24.4735C33.5243 25.2673 32.0882 25.4884 29.235 25.3975C24.7721 25.2554 23.6563 24.0231 24.8523 20.5585C25.336 19.1575 25.273 18.9008 24.7585 20.1765ZM81.7948 20.344C81.7948 20.9863 81.8346 21.2489 81.8833 20.9281C81.932 20.6066 81.932 20.0814 81.8833 19.7605C81.8346 19.4397 81.7948 19.7023 81.7948 20.344ZM9.15731 19.7077C9.15731 19.8241 9.43241 19.9198 9.76811 19.9198C10.1038 19.9198 10.4978 20.063 10.6427 20.2383C10.8026 20.4308 11.2672 20.5567 11.8186 20.5567C12.3486 20.5567 12.774 20.6672 12.8364 20.8217C12.922 21.0339 12.9469 21.0339 12.9606 20.8217C12.9808 20.4979 14.4924 20.4587 14.8073 20.7736C15.0491 21.0154 22.7056 20.9733 22.5262 20.7314C22.4679 20.6524 19.8993 20.5383 16.8186 20.4771C8.87924 20.3203 8.83348 19.9198 16.7544 19.9198C20.6022 19.9198 22.7383 19.8443 22.7383 19.7077C22.7383 19.5704 20.3337 19.4955 15.9481 19.4955C11.5625 19.4955 9.15731 19.5704 9.15731 19.7077ZM89.9338 22.4218L87.2119 25.4373H85.3058C83.5553 25.4373 83.4103 25.4058 83.5238 25.0481C83.5993 24.811 83.4888 24.5163 83.241 24.2917C82.714 23.8152 82.5197 24.142 82.897 24.8686C83.1661 25.3879 83.1572 25.4373 82.793 25.4373C82.503 25.4373 82.3717 25.2501 82.3093 24.7474C82.225 24.0683 82.2232 24.0701 82.1899 24.8538L82.1555 25.6494H84.6842H87.213L88.478 24.3232C89.1738 23.5935 90.3461 22.3072 91.0835 21.464C91.8208 20.6215 92.4584 19.9661 92.5012 20.0083C92.5434 20.0511 92.7121 21.0748 92.8761 22.284C93.1595 24.3731 93.169 24.3981 93.0591 22.7849C92.9955 21.8508 92.8785 20.7088 92.7994 20.2472L92.6557 19.407L89.9338 22.4218ZM140.512 20.1343C140.512 20.2751 143.168 20.3547 148.204 20.3648C156.206 20.3809 156.707 20.3969 157.343 20.6637C157.848 20.8746 158.315 20.4492 157.964 20.0986C157.778 19.9127 157.644 19.915 157.41 20.1087C157.2 20.2828 157.057 20.2935 156.964 20.1426C156.777 19.8396 140.512 19.8318 140.512 20.1343ZM158.655 20.3494C158.418 20.4432 160.136 20.5496 162.549 20.59C164.924 20.6298 166.91 20.5912 166.965 20.5033C167.093 20.2941 167.097 20.2941 162.793 20.2341C160.751 20.2056 158.889 20.2573 158.655 20.3494ZM9.15731 20.7688C9.15731 21.1806 9.01589 21.1931 4.45384 21.1931C-1.47539 21.1931 -1.48668 21.3351 4.43245 21.4516C9.12106 21.5442 9.20781 21.5347 9.43182 20.9281C9.59105 20.4961 10.0064 20.4272 10.0064 20.8324C10.0064 20.9839 9.8917 21.2228 9.75148 21.363C9.61006 21.5044 9.59105 21.6173 9.70929 21.6173C10.0462 21.6173 10.4306 21.1426 10.4306 20.7261C10.4306 20.4432 10.2654 20.344 9.79426 20.344C9.29872 20.344 9.15731 20.4385 9.15731 20.7688ZM153.456 20.7688C153.456 20.8853 153.928 20.981 154.505 20.981C155.082 20.981 155.612 20.8853 155.684 20.7688C155.766 20.6369 155.368 20.5567 154.636 20.5567C153.987 20.5567 153.456 20.6518 153.456 20.7688ZM104.971 21.3428C104.659 22.1111 103.588 25.3101 103.588 25.4771C103.588 25.6939 108.196 25.7064 108.33 25.4901C108.385 25.4028 107.388 25.3606 106.115 25.3975C104.842 25.4337 103.801 25.4147 103.801 25.3547C103.801 25.2953 104.136 24.3196 104.546 23.1871C104.956 22.054 105.254 21.0903 105.209 21.0451C105.164 21 105.057 21.1337 104.971 21.3428ZM82.0069 22.8906C82.0069 23.5329 82.0467 23.795 82.0954 23.4741C82.1442 23.1533 82.1442 22.628 82.0954 22.3072C82.0467 21.9863 82.0069 22.2489 82.0069 22.8906ZM139.239 22.0422C139.239 22.1747 140.508 22.2543 142.621 22.2543C144.647 22.2543 146.057 22.1687 146.135 22.0422C146.221 21.9037 145.041 21.8294 142.753 21.8294C140.551 21.8294 139.239 21.9091 139.239 22.0422ZM20.3402 22.177C19.9677 22.5496 20.2826 22.6969 21.3592 22.653C22.6165 22.6025 23.0015 22.2543 21.8007 22.2543C21.402 22.2543 20.9433 22.2032 20.7817 22.1414C20.6207 22.0796 20.4216 22.095 20.3402 22.177ZM115.603 23.2335C115.414 23.7849 115.298 24.2727 115.342 24.3172C115.387 24.3624 115.578 23.9483 115.765 23.3969C115.954 22.8455 116.07 22.3577 116.026 22.3125C115.98 22.2679 115.79 22.6821 115.603 23.2335ZM60.5662 27.6125C59.7795 28.6107 60.1842 29.3915 61.0944 28.6321C61.6542 28.1651 61.6738 28.0552 61.2685 27.65C60.8984 27.2798 60.8312 27.2762 60.5662 27.6125ZM58.7427 29.0801C58.432 29.8003 58.2115 30.4235 58.2531 30.4651C58.2947 30.5067 58.5841 29.9524 58.896 29.2334C59.2074 28.5139 59.4278 27.8906 59.385 27.8484C59.3422 27.8056 59.0535 28.36 58.7427 29.0801ZM61.2299 27.9459C61.3274 28.1027 60.6494 28.8324 60.407 28.8324C60.3523 28.8324 60.4165 28.5935 60.5496 28.3018C60.7962 27.7605 61.0374 27.6339 61.2299 27.9459ZM68.2649 28.4224C68.3421 28.5466 68.2281 28.7878 68.0124 28.9577C67.6464 29.2453 67.6618 29.2625 68.24 29.2085C68.581 29.177 68.9036 29.0183 68.9571 28.8561C69.0153 28.6785 68.9595 28.6196 68.8169 28.7076C68.666 28.8015 68.6256 28.7349 68.7058 28.5252C68.789 28.3089 68.7111 28.196 68.4788 28.196C68.2821 28.196 68.1877 28.2964 68.2649 28.4224ZM18.6534 29.4859C17.7003 30.0415 18.5541 30.1039 26.399 30.0552L34.516 30.0047L26.4519 29.9399C19.3521 29.8834 18.4519 29.8395 18.919 29.5739C19.2107 29.4075 19.3539 29.2714 19.2374 29.2709C19.1204 29.2703 18.8578 29.3671 18.6534 29.4859ZM60.2454 29.7159C59.9245 29.8329 59.6619 30.0266 59.6619 30.1461C59.6619 30.2655 59.8295 30.3023 60.0333 30.2275C60.2377 30.1526 59.9412 30.5341 59.3749 31.0748C58.8087 31.616 58.3274 32.168 58.306 32.3023C58.2395 32.7242 56.2674 35.2987 56.2585 34.9755C56.2537 34.8068 56.1094 34.9927 55.937 35.3896C55.4445 36.5251 55.6827 36.3676 56.795 34.824C57.3613 34.0379 58.022 33.234 58.2626 33.0379C58.5039 32.8418 58.6316 32.6119 58.5466 32.5269C58.3185 32.2988 58.8051 31.8032 59.2573 31.8032C59.5027 31.8032 59.6066 31.6945 59.5365 31.5103C59.4747 31.3493 59.6512 31.0391 59.9287 30.821C60.2062 30.6024 60.4569 30.3285 60.486 30.212C60.5151 30.095 60.7475 29.8834 61.0024 29.742C61.5674 29.4277 61.0808 29.4105 60.2454 29.7159ZM61.5032 30.1912C61.3832 30.5032 61.5205 30.742 61.8193 30.742C61.9168 30.742 61.9964 30.5513 61.9964 30.3178C61.9964 29.8312 61.6732 29.748 61.5032 30.1912ZM57.6839 31.4948C57.1854 32.54 57.2555 32.7182 57.7772 31.7301C58.0137 31.2815 58.1699 30.8769 58.1242 30.8311C58.0778 30.7854 57.88 31.0837 57.6839 31.4948Z" fill="white"/>
</svg>
